<svg width="20" height="27" viewBox="0 0 20 27" fill="none" xmlns="http://www.w3.org/2000/svg">
<path fill-rule="evenodd" clip-rule="evenodd" d="M4 2.66666C4 2.13622 4.21071 1.62752 4.58579 1.25244C4.96086 0.87737 5.46957 0.666656 6 0.666656H11.3333C11.8638 0.666656 12.3725 0.87737 12.7475 1.25244C13.1226 1.62752 13.3333 2.13622 13.3333 2.66666H15.3333C15.8638 2.66666 16.3725 2.87737 16.7475 3.25244C17.1226 3.62752 17.3333 4.13622 17.3333 4.66666V14.6667H16V4.66666C16 4.48985 15.9298 4.32028 15.8047 4.19525C15.6797 4.07023 15.5101 3.99999 15.3333 3.99999H13.3333C13.3333 4.53042 13.1226 5.03913 12.7475 5.4142C12.3725 5.78928 11.8638 5.99999 11.3333 5.99999H6C5.46957 5.99999 4.96086 5.78928 4.58579 5.4142C4.21071 5.03913 4 4.53042 4 3.99999H2C1.82319 3.99999 1.65362 4.07023 1.5286 4.19525C1.40357 4.32028 1.33333 4.48985 1.33333 4.66666V23.3333C1.33333 23.5101 1.40357 23.6797 1.5286 23.8047C1.65362 23.9298 1.82319 24 2 24H10V25.3333H2C1.46957 25.3333 0.960859 25.1226 0.585786 24.7475C0.210713 24.3725 0 23.8638 0 23.3333V4.66666C0 4.13622 0.210713 3.62752 0.585786 3.25244C0.960859 2.87737 1.46957 2.66666 2 2.66666H4ZM6 1.99999C5.82319 1.99999 5.65362 2.07023 5.52859 2.19525C5.40357 2.32028 5.33333 2.48985 5.33333 2.66666V3.99999C5.33333 4.1768 5.40357 4.34637 5.52859 4.47139C5.65362 4.59642 5.82319 4.66666 6 4.66666H11.3333C11.5101 4.66666 11.6797 4.59642 11.8047 4.47139C11.9298 4.34637 12 4.1768 12 3.99999V2.66666C12 2.48985 11.9298 2.32028 11.8047 2.19525C11.6797 2.07023 11.5101 1.99999 11.3333 1.99999H6ZM8 8.66666V10.6667H6V12H8V14H9.33333V12H11.3333V10.6667H9.33333V8.66666H8ZM11.3333 16C11.1565 16 10.987 16.0702 10.8619 16.1953C10.7369 16.3203 10.6667 16.4898 10.6667 16.6667V21.1927C10.6667 21.9609 10.8564 22.7172 11.2189 23.3945C11.5814 24.0718 12.1055 24.6492 12.7447 25.0753L14.9633 26.5553C15.0729 26.6284 15.2016 26.6674 15.3333 26.6674C15.465 26.6674 15.5938 26.6284 15.7033 26.5553L17.922 25.0753C18.5611 24.6492 19.0851 24.072 19.4476 23.3948C19.8101 22.7176 19.9999 21.9614 20 21.1933V16.6667C20 16.4898 19.9298 16.3203 19.8047 16.1953C19.6797 16.0702 19.5101 16 19.3333 16H11.3333ZM17.8047 19.8047L15.138 22.4713C15.013 22.5963 14.8434 22.6665 14.6667 22.6665C14.4899 22.6665 14.3204 22.5963 14.1953 22.4713L12.862 21.138L13.8047 20.1953L14.6667 21.0573L16.862 18.862L17.8047 19.8047Z" fill="#51B1A6"/>
</svg>
