<svg width="20" height="20" viewBox="0 0 20 20" fill="none" xmlns="http://www.w3.org/2000/svg">
<path d="M5 6H6V5V2.5C6 2.10218 6.15803 1.72064 6.43934 1.43934L5.73223 0.732233L6.43934 1.43934C6.72064 1.15804 7.10217 1 7.5 1H12.5C12.8978 1 13.2794 1.15803 13.5607 1.43934C13.842 1.72064 14 2.10218 14 2.5V5V6H15H17.5C17.8978 6 18.2794 6.15803 18.5607 6.43934C18.842 6.72064 19 7.10218 19 7.5V12.5C19 12.8978 18.842 13.2794 18.5607 13.5607C18.2794 13.842 17.8978 14 17.5 14H15H14V15V17.5C14 17.8978 13.842 18.2794 13.5607 18.5607C13.2794 18.842 12.8978 19 12.5 19H7.5C7.10218 19 6.72064 18.842 6.43934 18.5607C6.15803 18.2794 6 17.8978 6 17.5V15V14H5H2.5C2.10218 14 1.72064 13.842 1.43934 13.5607C1.15803 13.2794 1 12.8978 1 12.5V7.5C1 7.10217 1.15804 6.72064 1.43934 6.43934L0.732233 5.73223L1.43934 6.43934C1.72064 6.15803 2.10218 6 2.5 6H5Z" stroke="#51B1A6" stroke-width="2"/>
</svg>
