<svg width="24" height="24" viewBox="0 0 24 24" fill="none" xmlns="http://www.w3.org/2000/svg">
<path d="M14.1234 23.6667H9.87669C9.61061 23.6667 9.35251 23.5758 9.1452 23.409C8.93788 23.2422 8.7938 23.0096 8.73686 22.7497L8.26203 20.5517C7.6286 20.2741 7.02797 19.9271 6.47119 19.5168L4.32803 20.1993C4.07435 20.2802 3.80064 20.2719 3.55233 20.1758C3.30403 20.0797 3.09609 19.9015 2.96303 19.6708L0.835028 15.9947C0.703364 15.7638 0.653941 15.4951 0.694844 15.2326C0.735747 14.97 0.864555 14.729 1.06019 14.5492L2.72269 13.0325C2.64709 12.3455 2.64709 11.6522 2.72269 10.9652L1.06019 9.45201C0.864278 9.27208 0.735295 9.03093 0.694385 8.76809C0.653475 8.50525 0.703065 8.23631 0.835028 8.00534L2.95836 4.32684C3.09142 4.09621 3.29937 3.91803 3.54767 3.8219C3.79597 3.72576 4.06968 3.71745 4.32336 3.79834L6.46653 4.48084C6.75119 4.27084 7.04753 4.07484 7.35319 3.89751C7.64836 3.73184 7.95169 3.58134 8.26203 3.44718L8.73803 1.25151C8.79469 0.991574 8.9385 0.758813 9.1456 0.591817C9.3527 0.424822 9.61065 0.333623 9.87669 0.333344H14.1234C14.3894 0.333623 14.6474 0.424822 14.8545 0.591817C15.0616 0.758813 15.2054 0.991574 15.262 1.25151L15.7427 3.44834C16.3758 3.72589 16.976 4.07297 17.5324 4.48318L19.6767 3.80068C19.9302 3.72008 20.2037 3.72854 20.4517 3.82466C20.6998 3.92079 20.9075 4.09879 21.0405 4.32918L23.1639 8.00768C23.4345 8.48251 23.3412 9.08334 22.9387 9.45318L21.2762 10.9698C21.3518 11.6569 21.3518 12.3501 21.2762 13.0372L22.9387 14.5538C23.3412 14.9248 23.4345 15.5245 23.1639 15.9993L21.0405 19.6778C20.9075 19.9085 20.6995 20.0867 20.4512 20.1828C20.2029 20.2789 19.9292 20.2872 19.6755 20.2063L17.5324 19.5238C16.976 19.9338 16.3758 20.2804 15.7427 20.5575L15.262 22.7497C15.2051 23.0094 15.0612 23.2419 14.8541 23.4087C14.6471 23.5754 14.3892 23.6665 14.1234 23.6667ZM6.89003 16.9338L7.84669 17.6338C8.06253 17.7925 8.28653 17.9383 8.51986 18.0713C8.73919 18.1985 8.96319 18.3128 9.19536 18.4167L10.2839 18.8938L10.817 21.3333H13.1854L13.7185 18.8927L14.807 18.4155C15.2819 18.2055 15.7334 17.9453 16.1522 17.6385L17.1089 16.9385L19.4912 17.6968L20.6754 15.6458L18.8285 13.9623L18.9592 12.7817C19.0175 12.2648 19.0175 11.7433 18.9592 11.2277L18.8285 10.047L20.6765 8.36001L19.4912 6.30784L17.11 7.06618L16.1522 6.36618C15.7331 6.05782 15.2822 5.79537 14.807 5.58334L13.7185 5.10618L13.1854 2.66668H10.817L10.2804 5.10734L9.19536 5.58334C8.71958 5.79172 8.26842 6.05232 7.85019 6.36034L6.89236 7.06034L4.51236 6.30201L3.32586 8.36001L5.17269 10.0412L5.04203 11.223C4.98369 11.7398 4.98369 12.2613 5.04203 12.777L5.17269 13.9577L3.32586 15.6412L4.51003 17.6922L6.89003 16.9338ZM11.9954 16.6667C10.7577 16.6667 9.5707 16.175 8.69553 15.2998C7.82036 14.4247 7.32869 13.2377 7.32869 12C7.32869 10.7623 7.82036 9.57535 8.69553 8.70018C9.5707 7.82501 10.7577 7.33334 11.9954 7.33334C13.233 7.33334 14.42 7.82501 15.2952 8.70018C16.1704 9.57535 16.662 10.7623 16.662 12C16.662 13.2377 16.1704 14.4247 15.2952 15.2998C14.42 16.175 13.233 16.6667 11.9954 16.6667ZM11.9954 9.66668C11.5384 9.66714 11.0917 9.80174 10.7106 10.0538C10.3295 10.3058 10.0308 10.6642 9.85149 11.0845C9.67222 11.5048 9.62028 11.9685 9.70213 12.418C9.78398 12.8675 9.99601 13.2831 10.3119 13.6132C10.6278 13.9433 11.0337 14.1735 11.4792 14.275C11.9247 14.3765 12.3902 14.345 12.8179 14.1844C13.2457 14.0238 13.6169 13.7411 13.8854 13.3715C14.154 13.0018 14.3081 12.5615 14.3287 12.105V12.5717V12C14.3287 11.3812 14.0829 10.7877 13.6453 10.3501C13.2077 9.91251 12.6142 9.66668 11.9954 9.66668Z" fill="#51B1A6"/>
</svg>
