<svg width="26" height="26" viewBox="0 0 26 26" fill="none" xmlns="http://www.w3.org/2000/svg">
<path d="M8.66675 9.53335C8.66675 8.38407 9.12329 7.28187 9.93595 6.46922C10.7486 5.65656 11.8508 5.20001 13.0001 5.20001C14.1494 5.20001 15.2516 5.65656 16.0642 6.46922C16.8769 7.28187 17.3334 8.38407 17.3334 9.53335C17.3334 10.6826 16.8769 11.7848 16.0642 12.5975C15.2516 13.4101 14.1494 13.8667 13.0001 13.8667C11.8508 13.8667 10.7486 13.4101 9.93595 12.5975C9.12329 11.7848 8.66675 10.6826 8.66675 9.53335Z" fill="#51B1A6"/>
<path fill-rule="evenodd" clip-rule="evenodd" d="M13 0C9.55219 0 6.24558 1.36964 3.80761 3.80761C1.36964 6.24558 0 9.55219 0 13C0 16.4478 1.36964 19.7544 3.80761 22.1924C6.24558 24.6304 9.55219 26 13 26C16.4478 26 19.7544 24.6304 22.1924 22.1924C24.6304 19.7544 26 16.4478 26 13C26 9.55219 24.6304 6.24558 22.1924 3.80761C19.7544 1.36964 16.4478 0 13 0V0ZM1.73333 13C1.73336 11.1361 2.19582 9.30133 3.07925 7.66009C3.96269 6.01885 5.23951 4.62243 6.79529 3.59595C8.35108 2.56948 10.1372 1.94502 11.9937 1.77854C13.8501 1.61206 15.7189 1.90875 17.4325 2.64204C19.1461 3.37532 20.651 4.52229 21.8123 5.98015C22.9737 7.43802 23.7552 9.16123 24.0869 10.9954C24.4185 12.8295 24.29 14.7173 23.7127 16.4896C23.1354 18.2618 22.1275 19.8632 20.7792 21.1501C20.6498 19.6359 19.9568 18.2253 18.8372 17.1976C17.7176 16.1698 16.2531 15.5997 14.7333 15.6H11.2667C9.74689 15.5997 8.28235 16.1698 7.16279 17.1976C6.04323 18.2253 5.3502 19.6359 5.2208 21.1501C4.11713 20.0992 3.23881 18.8347 2.63927 17.4336C2.03973 16.0324 1.7315 14.524 1.73333 13Z" fill="#51B1A6"/>
</svg>
